<?xml version="1.0" encoding="UTF-8"?>
<svg width="40" height="40" viewBox="0 0 40 40" fill="none" xmlns="http://www.w3.org/2000/svg">
  <circle cx="20" cy="20" r="20" fill="#26A67F"/>
  <path d="M20.375 7.5V11.0156H26.6484V13.4375H10.5469V11.0156H16.8203V7.5H20.375ZM26.2891 15.5469V28.6719H26.2656C26.2656 29.4688 24.4844 30.1172 22.3125 30.5469C21.6719 30.6719 20.9844 30.7656 20.2734 30.8359C19.5859 30.9063 18.875 30.9297 18.1406 30.9297C17.4063 30.9297 16.6953 30.9063 16.0078 30.8359C15.2969 30.7656 14.6094 30.6719 13.9688 30.5469C11.7969 30.1172 10.0156 29.4688 10.0156 28.6719H10V15.5469H13.5547V28.4375C13.8672 28.5859 14.2031 28.7109 14.5859 28.8125C15.6094 29.0859 17.0156 29.2344 18.1406 29.2344C19.2656 29.2344 20.6719 29.0859 21.6953 28.8125C22.0781 28.7109 22.4141 28.5859 22.7266 28.4375V15.5469H26.2891Z" fill="white"/>
</svg>